<svg width="11" height="22" viewBox="0 0 11 22" fill="none" xmlns="http://www.w3.org/2000/svg">
<g clip-path="url(#clip0_2105_22)">
<path fill-rule="evenodd" clip-rule="evenodd" d="M9.5 5.74917V16.3292C9.5 18.4192 7.97 20.2792 5.89 20.4792C3.5 20.7092 1.5 18.8392 1.5 16.4992V4.13917C1.5 2.82917 2.44 1.63917 3.74 1.50917C5.24 1.35917 6.5 2.52917 6.5 3.99917V14.4992C6.5 15.0492 6.05 15.4992 5.5 15.4992C4.95 15.4992 4.5 15.0492 4.5 14.4992V5.74917C4.5 5.33917 4.16 4.99917 3.75 4.99917C3.34 4.99917 3 5.33917 3 5.74917V14.3592C3 15.6692 3.94 16.8592 5.24 16.9892C6.74 17.1392 8 15.9692 8 14.4992V4.16917C8 2.07917 6.47 0.219169 4.39 0.0191695C2.01 -0.210831 0 1.65917 0 3.99917V16.2692C0 19.1392 2.1 21.7092 4.96 21.9792C8.25 22.2792 11 19.7192 11 16.4992V5.74917C11 5.33917 10.66 4.99917 10.25 4.99917C9.84 4.99917 9.5 5.33917 9.5 5.74917Z" fill="white"/>
</g>
<defs>
<clipPath id="clip0_2105_22">
<rect width="11" height="22" fill="white"/>
</clipPath>
</defs>
</svg>
