<svg width="64" height="64" viewBox="0 0 64 64" fill="none" xmlns="http://www.w3.org/2000/svg">
<path d="M25 6.75H11C8.65279 6.75 6.75 8.65279 6.75 11V25C6.75 27.3472 8.65279 29.25 11 29.25H25C27.3472 29.25 29.25 27.3472 29.25 25V11C29.25 8.65279 27.3472 6.75 25 6.75Z" fill="#1E2843"/>
<path d="M50.5 6.75H36.5C34.1528 6.75 32.25 8.65279 32.25 11V25C32.25 27.3472 34.1528 29.25 36.5 29.25H50.5C52.8472 29.25 54.75 27.3472 54.75 25V11C54.75 8.65279 52.8472 6.75 50.5 6.75Z" fill="#1E2843"/>
<path d="M25 32.25H11C8.65279 32.25 6.75 34.1528 6.75 36.5V50.5C6.75 52.8472 8.65279 54.75 11 54.75H25C27.3472 54.75 29.25 52.8472 29.25 50.5V36.5C29.25 34.1528 27.3472 32.25 25 32.25Z" fill="#1E2843"/>
<path d="M50.5 32.25H36.5C34.1528 32.25 32.25 34.1528 32.25 36.5V50.5C32.25 52.8472 34.1528 54.75 36.5 54.75H50.5C52.8472 54.75 54.75 52.8472 54.75 50.5V36.5C54.75 34.1528 52.8472 32.25 50.5 32.25Z" fill="#1E2843"/>
</svg>
