<svg width="40" height="40" viewBox="0 0 40 40" fill="none" xmlns="http://www.w3.org/2000/svg">
<path d="M20 40C8.9543 40 -1.35705e-06 31.0457 -8.74228e-07 20C-3.91405e-07 8.9543 8.95431 -1.35705e-06 20 -8.74228e-07C31.0457 -3.91405e-07 40 8.95431 40 20C40 31.0457 31.0457 40 20 40ZM20 2C10.0589 2 2 10.0589 2 20C2 29.9411 10.0589 38 20 38C29.9411 38 38 29.9411 38 20C38 10.0589 29.9411 2 20 2Z" fill="#D80027"/>
<path d="M26.6084 24.7208C27.1305 25.2428 27.1305 26.0867 26.6084 26.6088C26.3481 26.8691 26.0062 27 25.6644 27C25.3225 27 24.9807 26.8691 24.7203 26.6088L20 21.8874L15.281 26.6074C15.0193 26.8677 14.6775 26.9986 14.337 26.9986C13.9951 26.9986 13.6533 26.8677 13.3929 26.6074C12.8708 26.0853 12.8708 25.2401 13.3929 24.7194L18.1118 19.9995L13.3916 15.2795C12.8695 14.7575 12.8695 13.9123 13.3916 13.3915C13.9123 12.8695 14.7576 12.8695 15.2797 13.3915L19.9999 18.1115L24.7202 13.3915C25.2423 12.8695 26.0862 12.8695 26.6083 13.3915C27.1304 13.9123 27.1304 14.7575 26.6083 15.2795L21.888 19.9995L26.6084 24.7208Z" fill="#D80027"/>
</svg>
