<svg width="36" height="36" viewBox="0 0 36 36" fill="none" xmlns="http://www.w3.org/2000/svg">
<g clip-path="url(#clip0_2087_22)">
<path d="M32.8556 12.4914C33.5087 14.251 33.8399 16.105 33.8399 18.0008C33.8399 26.7351 26.7342 33.8408 17.9999 33.8408C13.2515 33.8408 8.78745 31.7074 5.79009 28.0808H10.7999V26.6408H3.59985V33.8408H5.03985V29.4301C8.30145 33.1258 13.0088 35.2808 17.9999 35.2808C27.5283 35.2808 35.2799 27.5286 35.2799 18.0008C35.2799 15.933 34.9184 13.9112 34.2056 11.9902L32.8556 12.4914Z" fill="#1E2843"/>
<path d="M25.2 9.3607H32.4V2.1607H30.96V6.5707C27.6984 2.87494 22.9925 0.720703 18 0.720703C8.47221 0.720703 0.719971 8.47294 0.719971 18.0007C0.719971 20.0685 1.08141 22.0903 1.79421 24.0113L3.14421 23.5101C2.49117 21.7505 2.15997 19.8965 2.15997 18.0007C2.15997 9.26638 9.26565 2.1607 18 2.1607C22.7505 2.1607 27.2124 4.29334 30.2097 7.9207H25.2V9.3607Z" fill="#1E2843"/>
</g>
<defs>
<clipPath id="clip0_2087_22">
<rect width="36" height="36" fill="white"/>
</clipPath>
</defs>
</svg>
