<svg width="24" height="24" viewBox="0 0 24 24" fill="none" xmlns="http://www.w3.org/2000/svg">
<g clip-path="url(#clip0_143_27)">
<path d="M2.15465 18.0051C2.15465 16.7914 2.15465 2.58038 2.15465 1.36559C3.35642 1.36559 16.177 1.36559 17.3787 1.36559C17.3787 1.79511 17.3787 3.85159 17.3787 6.37993C17.6727 6.32567 17.9742 6.28881 18.2833 6.28881C18.4417 6.28881 18.5914 6.32135 18.7475 6.33548V0H0.786896V19.3707H12.0824V18.0051C7.97161 18.0051 2.89004 18.0051 2.15465 18.0051Z" fill="#1E2843"/>
<path d="M4.09946 10.4006H13.3764C13.4676 9.88975 13.6476 9.41467 13.8841 8.96997H4.09946V10.4006Z" fill="#1E2843"/>
<path d="M15.4319 4.49683H4.09946V5.92748H15.4319V4.49683Z" fill="#1E2843"/>
<path d="M4.09946 14.8747H13.717C13.9741 14.7186 14.2485 14.5917 14.5424 14.5136C14.2636 14.1892 14.0348 13.8248 13.8396 13.4441H4.09946V14.8747Z" fill="#1E2843"/>
<path d="M18.2844 15.018C20.3496 15.018 22.0134 13.3487 22.0134 11.29C22.0134 9.22923 20.3496 7.56104 18.2844 7.56104C16.2279 7.56104 14.563 9.22923 14.563 11.29C14.563 13.3487 16.2279 15.018 18.2844 15.018Z" fill="#1E2843"/>
<path d="M21.277 15.6233H15.3006C14.2333 15.6233 13.359 16.6017 13.359 17.8067V23.807C13.359 23.8731 13.3894 23.9317 13.3937 24.0001H23.1783C23.1827 23.9328 23.213 23.8731 23.213 23.807V17.8067C23.2174 16.6049 22.3453 15.6233 21.277 15.6233Z" fill="#1E2843"/>
</g>
<defs>
<clipPath id="clip0_143_27">
<rect width="24" height="24" fill="white"/>
</clipPath>
</defs>
</svg>
