<svg width="51" height="32" viewBox="0 0 51 32" fill="none" xmlns="http://www.w3.org/2000/svg">
<g clip-path="url(#clip0_2081_30)">
<path fill-rule="evenodd" clip-rule="evenodd" d="M34.2857 13.7143C38.08 13.7143 41.12 10.6514 41.12 6.85714C41.12 3.06286 38.08 0 34.2857 0C30.4914 0 27.4286 3.06286 27.4286 6.85714C27.4286 10.6514 30.4914 13.7143 34.2857 13.7143ZM16 13.7143C19.7943 13.7143 22.8343 10.6514 22.8343 6.85714C22.8343 3.06286 19.7943 0 16 0C12.2057 0 9.14286 3.06286 9.14286 6.85714C9.14286 10.6514 12.2057 13.7143 16 13.7143ZM16 18.2857C10.6743 18.2857 0 20.96 0 26.2857V29.7143C0 30.9714 1.02857 32 2.28571 32H29.7143C30.9714 32 32 30.9714 32 29.7143V26.2857C32 20.96 21.3257 18.2857 16 18.2857ZM34.2857 18.2857C33.6229 18.2857 32.8686 18.3314 32.0686 18.4C32.1143 18.4229 32.1371 18.4686 32.16 18.4914C34.7657 20.3886 36.5714 22.9257 36.5714 26.2857V29.7143C36.5714 30.5143 36.4114 31.2914 36.16 32H48C49.2571 32 50.2857 30.9714 50.2857 29.7143V26.2857C50.2857 20.96 39.6114 18.2857 34.2857 18.2857Z" fill="#1E2843"/>
</g>
<defs>
<clipPath id="clip0_2081_30">
<rect width="50.2857" height="32" fill="white"/>
</clipPath>
</defs>
</svg>
