<svg width="33" height="30" viewBox="0 0 33 30" fill="none" xmlns="http://www.w3.org/2000/svg">
<g clip-path="url(#clip0_2031_24)">
<path d="M16.0388 0.748047C7.34671 0.748047 0.74731 6.5328 0.74731 13.6628C0.681749 15.2617 1.01738 16.8516 1.72361 18.2876C2.42985 19.7236 3.48423 20.9599 4.79066 21.8841V21.8841C5.22709 23.8985 5.12135 25.9926 4.48423 27.9528C4.43107 28.131 4.42819 28.3204 4.47591 28.5002C4.52363 28.6799 4.62008 28.8429 4.75463 28.9713C4.88917 29.0997 5.05657 29.1883 5.23834 29.2275C5.42011 29.2668 5.60918 29.255 5.78468 29.1935L13.6995 26.3908C14.5062 26.5102 15.3204 26.5726 16.1359 26.5776C24.828 26.5776 31.831 20.7929 31.831 13.6628C31.831 6.5328 24.7309 0.748047 16.0388 0.748047Z" stroke="#324575" stroke-width="2" stroke-linecap="round" stroke-linejoin="round"/>
<path d="M13.5649 26.39C11.7875 26.0456 10.0735 25.4305 8.48267 24.5664" stroke="#324575" stroke-width="2" stroke-linecap="round" stroke-linejoin="round"/>
<path d="M9.59625 15.8746C10.5745 15.8746 11.3676 15.0816 11.3676 14.1033C11.3676 13.1251 10.5745 12.332 9.59625 12.332C8.61799 12.332 7.82495 13.1251 7.82495 14.1033C7.82495 15.0816 8.61799 15.8746 9.59625 15.8746Z" fill="#324575"/>
<path d="M16.532 15.8746C17.5103 15.8746 18.3033 15.0816 18.3033 14.1033C18.3033 13.1251 17.5103 12.332 16.532 12.332C15.5538 12.332 14.7607 13.1251 14.7607 14.1033C14.7607 15.0816 15.5538 15.8746 16.532 15.8746Z" fill="#324575"/>
<path d="M23.4678 15.8746C24.4461 15.8746 25.2391 15.0816 25.2391 14.1033C25.2391 13.1251 24.4461 12.332 23.4678 12.332C22.4896 12.332 21.6965 13.1251 21.6965 14.1033C21.6965 15.0816 22.4896 15.8746 23.4678 15.8746Z" fill="#324575"/>
</g>
<defs>
<clipPath id="clip0_2031_24">
<rect width="32.5785" height="30" fill="white"/>
</clipPath>
</defs>
</svg>
