<svg width="24" height="24" viewBox="0 0 24 24" fill="none" xmlns="http://www.w3.org/2000/svg">
<path d="M21.5942 6.09336C21.4334 5.75704 21.0303 5.61486 20.6941 5.77569L19.2648 6.45932C19.4074 7.06649 19.2493 7.68284 18.8786 8.14025L21.2765 6.99341C21.6128 6.83263 21.755 6.42964 21.5942 6.09336Z" fill="#1E2843"/>
<path d="M19.0761 21.7542C20.174 21.4724 20.9854 20.4761 20.9854 19.2904C20.9854 18.2193 20.323 17.3034 19.3857 16.9285L17.6655 8.86049L16.3704 9.25921L17.953 16.6818L13.6385 16.1083L12.6598 19.0347C12.2871 20.149 11.0838 20.7387 9.98193 20.3702C9.62985 20.2525 9.32948 20.0504 9.09501 19.7942C8.86115 20.9588 7.83281 21.8362 6.59929 21.8362C5.19328 21.8362 4.05352 20.6964 4.05352 19.2904C4.05352 17.8844 5.19328 16.7446 6.59929 16.7446C7.38121 16.7446 8.08054 17.0973 8.54746 17.6521L9.19598 15.5179L8.21662 13.1562L9.1147 13.1432L7.24889 11.7293L11.1 13.3208L9.53826 17.9908C9.33234 18.6065 9.66454 19.2726 10.2802 19.4785C10.8964 19.6845 11.5622 19.3518 11.7679 18.7365L13.6751 13.034C13.87 12.4514 13.5833 11.817 13.0173 11.5781L10.8249 10.6528C11.3708 9.86788 11.3667 9.87383 11.9682 9.00918L10.1316 6.47146L12.9968 8.81526C13.2475 9.02038 13.5881 9.09102 13.9053 8.99324L17.6458 7.84171C18.1629 7.68252 18.453 7.13432 18.2938 6.61729C18.1346 6.10021 17.5865 5.81006 17.0693 5.96929L13.8307 6.96632L11.3721 4.95515L13.5751 5.95724C13.5123 5.59795 13.3158 5.26186 12.9987 5.03001L10.9439 3.52739C10.264 3.03028 9.30543 3.21033 8.85173 3.9188L5.55492 9.06716C5.03128 9.88485 5.38476 10.9712 6.2745 11.333L6.72543 11.5164L5.31394 11.5147C4.86066 11.5147 4.49316 11.8821 4.49316 12.3355C4.49316 12.7888 4.86066 13.1562 5.31394 13.1562H6.75543L7.58039 15.1456C7.26529 15.0712 6.93712 15.0307 6.59934 15.0307C4.24678 15.0307 2.33963 16.9379 2.33963 19.2904C2.33963 20.5367 2.87499 21.6578 3.72802 22.4367L3.08649 23.0782C2.87564 23.2891 2.87564 23.631 3.08649 23.8418C3.29738 24.0526 3.63924 24.0526 3.85008 23.8418L4.62638 23.0655C5.21634 23.3744 5.88712 23.5501 6.59925 23.5501C8.76374 23.5501 17.7311 21.9277 17.7311 21.9277L19.6137 23.8389C19.8229 24.0513 20.1648 24.054 20.3772 23.8447C20.5897 23.6355 20.5923 23.2936 20.383 23.0812L19.0761 21.7542Z" fill="#1E2843"/>
<path d="M14.0418 4.32459C15.236 4.32459 16.2041 3.35649 16.2041 2.16229C16.2041 0.968091 15.236 0 14.0418 0C12.8476 0 11.8795 0.968091 11.8795 2.16229C11.8795 3.35649 12.8476 4.32459 14.0418 4.32459Z" fill="#1E2843"/>
</svg>
