<svg width="64" height="64" viewBox="0 0 64 64" fill="none" xmlns="http://www.w3.org/2000/svg">
<path d="M32 4C24.5764 4.00814 17.4593 6.96074 12.21 12.21C6.96074 17.4593 4.00814 24.5764 4 32C5.537 69.146 58.4687 69.1352 60 31.9998C59.9918 24.5763 57.0392 17.4591 51.79 12.2099C46.5407 6.96071 39.4235 4.00813 32 4V4ZM32.54 11.48C39.1459 11.6929 39.1454 21.2616 32.5399 21.48C25.9315 21.2673 25.9341 11.6852 32.54 11.48ZM33.73 52.52H32.27C30.6982 52.5125 29.1915 51.8916 28.0708 50.7896C26.95 49.6875 26.3039 48.1914 26.27 46.62C26.1948 41.6853 26.966 36.7742 28.55 32.1C27.7563 31.687 27.1233 31.0209 26.7512 30.2072C26.3791 29.3936 26.2893 28.479 26.496 27.6085C26.7028 26.738 27.1942 25.9615 27.8924 25.402C28.5905 24.8425 29.4555 24.5321 30.3501 24.5201C31.4798 24.3868 32.6245 24.5629 33.6619 25.0297C34.6993 25.4964 35.5904 26.2363 36.24 27.1701C38.9356 31.032 35.3163 35.0975 34.9002 39.2801C34.567 41.0226 34.363 42.7874 34.29 44.56C35.2923 44.7017 36.2035 45.2181 36.84 46.0051C37.4765 46.7922 37.791 47.7913 37.7199 48.801C37.6489 49.8107 37.1977 50.756 36.4572 51.4461C35.7168 52.1363 34.7422 52.52 33.73 52.52V52.52Z" fill="#1E2843"/>
<path d="M32.54 19.4805C33.3298 19.4716 34.0842 19.1516 34.6395 18.5899C35.1949 18.0283 35.5063 17.2703 35.5063 16.4804C35.5063 15.6906 35.1948 14.9326 34.6395 14.371C34.0841 13.8093 33.3297 13.4893 32.5399 13.4805C31.7501 13.4894 30.9956 13.8094 30.4403 14.371C29.8849 14.9327 29.5735 15.6907 29.5735 16.4805C29.5735 17.2704 29.885 18.0284 30.4403 18.59C30.9957 19.1516 31.7502 19.4716 32.54 19.4805Z" fill="#1E2843"/>
<path d="M33.7301 46.5204C33.0119 46.6007 32.2778 46.3438 32.2702 45.5103C32.321 40.8804 33.2402 36.3012 34.9801 32.0104C36.1634 28.87 33.5541 26.1135 30.3501 26.5205C29.854 26.5272 29.3781 26.7177 29.0145 27.0552C28.6509 27.3927 28.4254 27.8532 28.3819 28.3474C28.3383 28.8416 28.4797 29.3344 28.7787 29.7303C29.0777 30.1262 29.5129 30.397 30.0002 30.4904C30.1432 30.5175 30.2787 30.5753 30.3973 30.6599C30.5158 30.7444 30.6146 30.8537 30.6869 30.9801C30.7591 31.1066 30.8031 31.2472 30.8157 31.3922C30.8284 31.5373 30.8094 31.6834 30.7601 31.8204C29.0359 36.5506 28.192 41.5564 28.2701 46.5904C28.2928 47.6377 28.7237 48.6346 29.471 49.3688C30.2182 50.1029 31.2226 50.5161 32.2701 50.5204H33.7301C34.2558 50.5131 34.7574 50.2992 35.1266 49.925C35.4958 49.5507 35.7027 49.0461 35.7027 48.5204C35.7027 47.9947 35.4958 47.4901 35.1266 47.1158C34.7574 46.7415 34.2558 46.5276 33.7301 46.5204Z" fill="#1E2843"/>
</svg>
