<svg width="24" height="24" viewBox="0 0 24 24" fill="none" xmlns="http://www.w3.org/2000/svg">
<path d="M3.26307 22.0965C3.26307 22.0965 3.24124 22.6331 3.76599 22.6331C4.41896 22.6331 9.81555 22.6258 9.81555 22.6258L9.82465 17.6685C9.82465 17.6685 9.73916 16.8518 10.5313 16.8518H13.0422C13.9799 16.8518 13.9226 17.6685 13.9226 17.6685L13.9116 22.6103C13.9116 22.6103 19.03 22.6103 19.8339 22.6103C20.4996 22.6103 20.4696 21.9428 20.4696 21.9428V12.8012L12.1228 5.37744L3.26307 12.8021C3.26307 12.8021 3.26307 22.0965 3.26307 22.0965Z" fill="#1E2843"/>
<path d="M0 12.1108C0 12.1108 0.751194 13.4968 2.39272 12.1108L12.1973 3.81588L21.389 12.059C23.2879 13.4286 24 12.059 24 12.059L12.1973 1.36768L0 12.1108Z" fill="#1E2843"/>
<path d="M21.1654 3.79688H18.8018L18.8118 6.66432L21.1654 8.66235V3.79688Z" fill="#1E2843"/>
</svg>
