<svg width="32" height="32" viewBox="0 0 32 32" fill="none" xmlns="http://www.w3.org/2000/svg">
<g clip-path="url(#clip0_2079_26)">
<path d="M24.8 2.39928H21.2001C20.8251 1.89928 20.2313 1.59928 19.6063 1.59928H18.2688C17.825 0.34928 16.4563 -0.30697 15.2063 0.13678C14.525 0.38053 13.9875 0.91803 13.7438 1.59928H12.4063C11.775 1.59928 11.1875 1.89928 10.8063 2.39928H7.2063C5.00005 2.40553 3.21255 4.19303 3.2063 6.39928V27.9993C3.21255 30.2055 5.00005 31.993 7.2063 31.9993H24.8063C27.0125 31.993 28.8 30.2055 28.8063 27.9993V6.39928C28.7938 4.19303 27.0063 2.40553 24.8 2.39928ZM16 1.59928C16.4438 1.59928 16.8 1.95553 16.8 2.39928C16.8 2.84303 16.4438 3.19928 16 3.19928C15.5563 3.19928 15.2 2.84303 15.2 2.39928C15.2 1.95553 15.5563 1.59928 16 1.59928ZM13.7375 3.19928C14.1813 4.44928 15.55 5.10553 16.8 4.66178C17.4813 4.41803 18.0188 3.88053 18.2625 3.19928H19.6C19.8188 3.19928 20 3.38053 20 3.59928V5.99928C20 6.21803 19.8188 6.39928 19.6 6.39928H12.4C12.1813 6.39928 12 6.21803 12 5.99928V3.59928C12 3.38053 12.1813 3.19928 12.4 3.19928H13.7375ZM13.4625 23.643L11.8625 26.043C11.6375 26.3805 11.2 26.493 10.8375 26.3118L9.23755 25.5118C8.8438 25.3118 8.6813 24.8305 8.8813 24.4368C9.0813 24.043 9.56255 23.8805 9.9563 24.0805L10.925 24.568L12.1313 22.7555C12.375 22.3868 12.8688 22.2805 13.2375 22.5243C13.6063 22.768 13.7125 23.2618 13.4688 23.6305C13.4688 23.6368 13.4688 23.6368 13.4625 23.643ZM13.4625 18.043L11.8625 20.443C11.6375 20.7805 11.2 20.893 10.8375 20.718L9.23755 19.918C8.8438 19.718 8.6813 19.2368 8.8813 18.843C9.0813 18.4493 9.56255 18.2868 9.9563 18.4868L10.925 18.9743L12.1313 17.1618C12.375 16.793 12.8688 16.6868 13.2375 16.9305C13.6063 17.1743 13.7125 17.668 13.4688 18.0368C13.4688 18.0368 13.4688 18.043 13.4625 18.043ZM13.4625 12.443L11.8625 14.843C11.6375 15.1805 11.2 15.293 10.8375 15.118L9.2438 14.3118C8.85005 14.1118 8.68755 13.6305 8.88755 13.2368C9.08755 12.843 9.5688 12.6805 9.96255 12.8805L10.9313 13.368L12.1375 11.5555C12.3813 11.1868 12.875 11.0805 13.2438 11.3243C13.6125 11.568 13.7188 12.0618 13.475 12.4305C13.4688 12.4368 13.4688 12.4368 13.4625 12.443ZM22.4063 25.5993H16C15.5563 25.5993 15.2 25.243 15.2 24.7993C15.2 24.3555 15.5563 23.9993 16 23.9993H22.4C22.8438 23.9993 23.2001 24.3555 23.2001 24.7993C23.2001 25.243 22.8438 25.5993 22.4063 25.5993ZM22.4063 19.9993H16C15.5563 19.9993 15.2 19.643 15.2 19.1993C15.2 18.7555 15.5563 18.3993 16 18.3993H22.4C22.8438 18.3993 23.2001 18.7555 23.2001 19.1993C23.2001 19.643 22.8438 19.9993 22.4063 19.9993ZM22.4063 14.3993H16C15.5563 14.3993 15.2 14.043 15.2 13.5993C15.2 13.1555 15.5563 12.7993 16 12.7993H22.4C22.8438 12.7993 23.2001 13.1555 23.2001 13.5993C23.2001 14.043 22.8438 14.3993 22.4063 14.3993Z" fill="#1E2843"/>
</g>
<defs>
<clipPath id="clip0_2079_26">
<rect width="32" height="32" fill="white"/>
</clipPath>
</defs>
</svg>
