<?xml version="1.0" encoding="UTF-8"?>
<!DOCTYPE svg PUBLIC "-//W3C//DTD SVG 1.1//EN" "http://www.w3.org/Graphics/SVG/1.1/DTD/svg11.dtd">
<!-- Creator: CorelDRAW 2021.5 -->
<svg xmlns="http://www.w3.org/2000/svg" xml:space="preserve" width="95mm" height="95mm" version="1.1" style="shape-rendering:geometricPrecision; text-rendering:geometricPrecision; image-rendering:optimizeQuality; fill-rule:evenodd; clip-rule:evenodd"
viewBox="0 0 9500 9500"
 xmlns:xlink="http://www.w3.org/1999/xlink"
 xmlns:xodm="http://www.corel.com/coreldraw/odm/2003">
 <defs>
  <style type="text/css">
   <![CDATA[
    .str0 {stroke:#399DD7;stroke-width:7.62;stroke-miterlimit:22.9256}
    .fil1 {fill:#02A5F0}
    .fil2 {fill:#2A2928;fill-rule:nonzero}
    .fil0 {fill:#02A5F0;fill-rule:nonzero}
   ]]>
  </style>
 </defs>
 <g id="Слой_x0020_1">
  <metadata id="CorelCorpID_0Corel-Layer"/>
  <g id="_2224154982400">
   <path class="fil0" d="M8983.49 4725.86c-307.11,307.11 -678.59,468.14 -1114.46,483.15 -4.51,-13.42 -7.45,-26.8 -8.79,-40.14 48.79,-108.72 88.42,-198.42 118.8,-268.94 36.38,-84.48 65.81,-155.19 88.22,-212.13l7.84 -20.96c204.11,-45.78 382.96,-145.47 536.56,-299.05 218.81,-218.83 328.23,-493.5 328.23,-824.03 0,-330.53 -109.42,-605.2 -328.23,-824.02 -70.03,-70.03 -145.33,-128.84 -225.86,-176.46 -2.73,-12.41 -5.84,-24.8 -9.33,-37.17l-0.08 0.02c-28.13,-101.39 -72.5,-184.21 -133.14,-248.41 -62.47,-66.13 -140.69,-111.42 -234.63,-135.85l-8.82 -2.29 -7.16 -0.55c-18.76,-1.44 -33.9,-5.32 -45.34,-11.6 -7.99,-4.38 -14.63,-10.31 -19.9,-17.72 -8.84,-18.48 -13.98,-37.66 -15.44,-57.49 -1.56,-21.2 0.9,-43.53 7.34,-66.94 12.2,-30.22 16.04,-58.11 11.5,-83.65 409.28,27.52 760.19,187.54 1052.69,480.04 322.88,322.87 484.32,716.9 484.32,1182.09 0,465.19 -161.44,859.22 -484.32,1182.1zm-1660.33 420.53c-263.5,-74.64 -498.14,-214.81 -703.85,-420.53 -322.88,-322.88 -484.31,-716.91 -484.31,-1182.1 0,-465.19 161.43,-859.22 484.31,-1182.09 98.71,-98.71 204.08,-182.31 316.08,-250.83 48.1,46.17 105.49,88.71 172.12,127.57 78.26,45.64 169.59,86.31 273.97,121.97 39.45,15.24 71.93,35.17 97.42,59.77 3.36,3.24 6.61,6.58 9.74,10.02 -187.94,49.33 -353.79,145.86 -497.5,289.57 -218.81,218.82 -328.23,493.49 -328.23,824.02 0,330.53 109.42,605.2 328.23,824.03 148.63,148.61 320.9,246.75 516.82,294.43 -4.41,48.52 -11.23,91.22 -20.48,128.02 -8.11,32.34 -17.85,59.59 -29.2,81.77 -11.67,12.04 -23.34,22.89 -35,32.5 -11.1,9.19 -21.62,16.82 -31.48,22.87 -43.34,18.84 -70.83,50.46 -82.46,94.8 -9.2,35.07 -5.36,74.5 11.49,118.19l2.33 6.02z"/>
   <polygon class="fil0" points="3091.38,1937.03 3091.38,5150.49 2563.45,5150.49 2563.45,2859.75 1585.65,4475.66 1521.37,4475.66 543.56,2855.16 543.56,5150.49 15.64,5150.49 15.64,1937.03 584.88,1937.03 1553.5,3543.76 2526.73,1937.03 "/>
   <path class="fil0" d="M5345.4 3484.08c327.47,156.09 491.2,414.69 491.2,775.83 0,281.56 -106.35,510.33 -319.05,686.3 -212.71,175.97 -490.44,263.95 -833.21,263.95 -587.61,0 -976.28,-247.88 -1166.03,-743.68l454.47 -261.67c94.88,339.72 332.07,509.57 711.56,509.57 201.99,0 356.54,-43.62 463.66,-130.84 107.11,-87.22 160.67,-204.28 160.67,-351.18 0,-143.84 -51.25,-259.37 -153.79,-346.59 -102.53,-87.23 -247.13,-130.84 -433.81,-130.84l-390.21 0 0 -477.43 284.62 0c180.57,0 321.34,-41.32 422.34,-123.95 100.99,-82.63 151.48,-192.8 151.48,-330.52 0,-137.72 -45.89,-247.13 -137.71,-328.23 -91.81,-81.11 -223.41,-121.66 -394.8,-121.66 -318.28,0 -532.52,145.37 -642.68,436.12l-449.89 -261.68c208.1,-446.82 572.3,-670.24 1092.57,-670.24 315.23,0 570.78,84.94 766.65,254.79 195.87,169.86 293.8,390.97 293.8,663.35 0,302.98 -123.95,532.51 -371.84,688.6z"/>
   <path class="fil1" d="M8312.94 3279.79c-34.29,-145.83 -48.88,-273.1 -43.78,-381.84 47.26,-124.16 53.94,-246.62 20.01,-367.36 -48.17,-173.99 -149.26,-281 -303.27,-321.05 -63.75,-4.89 -109.69,-30.14 -137.82,-75.73 -30.66,-60.85 -35.5,-126.94 -14.55,-198.29 14.43,-32.96 10.33,-52.1 -12.3,-57.43 -8.85,-2 -15.32,-4.97 -22.82,-7.8 -13.65,-5.16 -16.99,2.8 -17.18,-1.53 -0.46,-10.08 -5.64,-12.22 -9.54,-12.31 -9.4,-0.21 -6.88,-5.72 -6.26,-11.48 3.38,-31.26 4.15,-37.35 -11.22,-37.22 -31.45,2.5 -54.74,-1.26 -72.72,-5.17 -55.07,-34.08 -105.26,-42.5 -150.56,-25.24 -82.9,41.97 -132.9,104.92 -150.01,188.84 154.59,15.44 251.18,80.07 289.79,193.89 -84.73,-109.99 -186.64,-165.52 -305.71,-166.55 -59.48,1.88 -110.49,-12.07 -153.02,-41.86 -64.07,-29.6 -120.49,-53.36 -169.24,-71.24 -51.45,-18.86 -35.5,-14.08 -74.6,-46.69 -35.95,-29.96 -85.04,-53.64 -147.25,-71.01 -112.77,-35.51 -194.16,-62.68 -244.2,-81.53 -28.01,-22.25 -43.01,-48.48 -44.98,-78.76 -19.56,-34.62 -43.26,-53.43 -71.03,-56.42 -26.53,-10.59 -51,-22.05 -73.42,-34.36 -27,-4.82 -30.51,4.31 -10.47,27.37 14.57,14.82 29.92,28.31 46.04,40.48 8.39,18.07 2.39,29.12 -17.99,33.12 -76.57,22.56 -152.01,18.85 -226.32,-11.1 -16.17,-6.33 -18.1,26.67 -4.27,34.25 -11.85,1.02 -11.26,20.21 -2.49,27.81 -7.68,9.18 -1.92,25.69 9,29.21 -9.71,7.09 1.69,26.77 21.36,31.86 82.19,30.01 184.67,45.33 307.42,45.96 51.58,10.85 114.7,45.04 189.38,102.52 65.98,42.99 122.94,73.74 170.88,92.24 57.71,22.27 56.15,3.31 101.84,52.96 95.17,103.36 241.73,188.85 439.7,256.42 104.22,39.59 173.86,106.79 208.9,201.63 35.92,92.22 90.31,172.23 163.15,240.1 270,339.89 -78.09,422.32 103.9,782.53 37.37,83.77 53.26,228.72 47.66,434.79 -32.72,115.73 -89.28,221.38 -169.63,316.96 -102.35,148 -157.63,283.64 -165.87,406.97 -9.48,116.67 -31.93,206.05 -67.32,268.16 -34.31,36.9 -67.99,64.72 -101.04,83.51 -36.85,14.56 -45.44,47.33 -25.78,98.32 33.02,42.21 66.41,81.61 100.19,118.19 23.66,33.19 43.81,74.28 60.46,123.3 42.22,68.15 103.81,111.04 184.75,128.66 43.77,0.24 70.16,-5.69 79.15,-17.79 -46.46,-51.88 -69.69,-77.84 -69.69,-77.84 -65.21,-76.77 -100.44,-177.36 -105.7,-301.73 -2.7,-58.85 74.23,-230.77 230.77,-515.76 32.63,-68.28 64.86,-144.3 96.65,-228.03 14.71,-38.71 11.44,-32.39 39.98,-61.21 98.2,-99.13 57.05,-147.23 104.72,-249.55 110.88,-237.95 254.62,-474.02 186.35,-746.17zm-59.34 687.81c59.45,-186.16 87.19,-325.26 83.26,-417.31 -38.58,154.09 -93.88,299.2 -165.86,435.32 -54.59,110.09 3.04,171.72 -99.11,282.62 -34.16,37.07 -44.02,54.57 -67.17,102.75 -12.22,25.43 -24.62,54.97 -37.14,88.55 -107.97,226.12 -213.18,414.95 -270.47,558.99 -25.92,70.81 -19.06,103.8 17.69,225.74 33.54,79.94 81.43,147.47 143.65,202.58 95.35,-13.1 34.19,-43.29 2.8,-79.18 -61.82,-70.72 -92.73,-142.61 -92.72,-215.65 98.01,-218.06 169.45,-383.91 214.31,-497.54 21.78,-53.64 123.77,-351.06 180.15,-386.84 88.47,-136.93 50.79,-175.27 90.61,-300.03zm-1141.41 -2411.96c107.94,76.36 216.96,170.4 313.77,258.25 -40.18,49.88 -65.25,97.43 -75.19,142.66 -85.18,-118.62 -156.67,-219.41 -214.47,-302.35 -15.74,-20.02 -28.13,-25.87 -74.4,-21.42 -45.01,2.14 -121.81,-35.64 -151.28,-79.11 -12.11,-18.73 1.69,-27.46 18.4,-20.09 49.22,22.52 83.34,41.22 101.08,30.91 10.05,-11.83 -25.83,-26.15 -43.2,-29.91 -12.81,-5.86 -6.02,-21.9 22.26,-17.28 45.43,5.31 65.92,12.09 103.03,38.34z"/>
   <path class="fil1" d="M7650.07 3403.46c77.47,0 140.3,62.83 140.3,140.3 0,77.48 -62.83,140.3 -140.3,140.3 -77.48,0 -140.3,-62.82 -140.3,-140.3 0,-77.47 62.82,-140.3 140.3,-140.3z"/>
   <path class="fil1" d="M7593.95 3118.33c51.65,0 93.53,41.88 93.53,93.54 0,51.65 -41.88,93.52 -93.53,93.52 -51.65,0 -93.53,-41.87 -93.53,-93.52 0,-51.66 41.88,-93.54 93.53,-93.54z"/>
   <path class="fil1" d="M7593.95 3782.13c51.65,0 93.53,41.87 93.53,93.52 0,51.66 -41.88,93.53 -93.53,93.53 -51.65,0 -93.53,-41.87 -93.53,-93.53 0,-51.65 41.88,-93.52 93.53,-93.52z"/>
   <path class="fil1" d="M7406.89 2688.36c25.82,0 46.76,20.94 46.76,46.76 0,25.83 -20.94,46.77 -46.76,46.77 -25.83,0 -46.78,-20.94 -46.78,-46.77 0,-25.82 20.95,-46.76 46.78,-46.76z"/>
   <path class="fil1" d="M7519.12 4067.25c38.74,0 70.15,31.41 70.15,70.15 0,38.74 -31.41,70.15 -70.15,70.15 -38.73,0 -70.14,-31.41 -70.14,-70.15 0,-38.74 31.41,-70.15 70.14,-70.15z"/>
   <path class="fil1 str0" d="M7406.89 4305.62c25.82,0 46.76,20.93 46.76,46.76 0,25.83 -20.94,46.77 -46.76,46.77 -25.83,0 -46.78,-20.94 -46.78,-46.77 0,-25.83 20.95,-46.76 46.78,-46.76z"/>
   <path class="fil1" d="M7519.12 2879.97c38.74,0 70.15,31.41 70.15,70.15 0,38.74 -31.41,70.15 -70.15,70.15 -38.73,0 -70.14,-31.41 -70.14,-70.15 0,-38.74 31.41,-70.15 70.14,-70.15z"/>
   <path class="fil2" d="M95.56 7794.36c56.07,59.62 142.38,93.42 231.35,93.42 143.27,0 232.25,-64.94 232.25,-176.18 0,-98.76 -75.63,-143.24 -121.91,-153.03l0 -0.89c45.39,-12.46 102.33,-55.18 102.33,-142.38 0,-114.78 -104.11,-173.51 -204.66,-173.51 -80.97,0 -167.27,33.81 -223.34,92.53l32.93 37.37c61.4,-61.4 134.36,-80.07 190.41,-80.07 80.09,0 153.05,46.27 153.05,129.9 0,48.95 -31.14,113.9 -137.03,113.9l-139.7 0 0 48.06 136.14 0c90.76,0 159.28,48.05 159.28,125.46 0,78.3 -59.61,129.02 -179.75,129.02 -67.62,0 -141.48,-23.14 -198.42,-81.86l-32.93 38.26zm5799.81 93.42c177.97,0 318.56,-143.25 318.56,-322.99 0,-179.75 -140.59,-323 -318.56,-323 -177.96,0 -317.67,143.25 -317.67,323 0,179.74 139.71,322.99 317.67,322.99zm0 -49.82c-149.49,0 -266.06,-125.46 -266.06,-273.17 0,-147.71 116.57,-273.17 266.06,-273.17 150.38,0 266.05,125.46 266.05,273.17 0,147.71 -115.67,273.17 -266.05,273.17zm-5197.4 168.18l0 -129.92 478.73 0 0 129.92 51.61 0 0 -179.75 -79.2 0 0 -573.04 -387.07 0 0 404.88c0,70.29 -29.37,121.9 -76.52,168.16l-39.16 0 0 179.75 51.61 0zm50.72 -179.75c39.16,-40.04 64.95,-101.44 64.95,-170.84l0 -352.36 283.86 0 0 523.2 -348.81 0zm885.36 61.39c177.96,0 318.56,-143.25 318.56,-322.99 0,-179.75 -140.6,-323 -318.56,-323 -177.96,0 -317.66,143.25 -317.66,323 0,179.74 139.7,322.99 317.66,322.99zm0 -49.82c-149.49,0 -266.06,-125.46 -266.06,-273.17 0,-147.71 116.57,-273.17 266.06,-273.17 150.38,0 266.05,125.46 266.05,273.17 0,147.71 -115.67,273.17 -266.05,273.17zm515.2 38.26l0 -230.46 166.39 0c109.45,0 213.56,-53.39 213.56,-197.54 0,-144.15 -104.11,-194.87 -213.56,-194.87l-218 0 0 622.87 51.61 0zm0 -573.03l159.27 0c137.04,0 168.17,73.85 168.17,145.03 0,72.08 -31.13,147.72 -168.17,147.72l-159.27 0 0 -292.75zm798.16 584.59c177.97,0 318.56,-143.25 318.56,-322.99 0,-179.75 -140.59,-323 -318.56,-323 -177.96,0 -317.66,143.25 -317.66,323 0,179.74 139.7,322.99 317.66,322.99zm0 -49.82c-149.48,0 -266.05,-125.46 -266.05,-273.17 0,-147.71 116.57,-273.17 266.05,-273.17 150.39,0 266.06,125.46 266.06,273.17 0,147.71 -115.67,273.17 -266.06,273.17zm706.51 38.26c117.47,0 216.23,-47.15 216.23,-162.84 0,-112.11 -99.66,-145.02 -130.8,-153.04l0 -0.9c37.37,-10.67 108.55,-45.37 108.55,-139.68 0,-124.59 -114.79,-166.41 -216.22,-166.41l-220.68 0 0 622.87 242.92 0zm-191.31 -573.03l164.61 0c101.45,0 168.18,35.59 168.18,119.23 0,78.3 -62.29,113.89 -142.37,113.89l-190.42 0 0 -233.12zm0 282.95l195.77 0c89.86,0 159.27,45.39 159.27,124.57 0,71.19 -50.72,115.68 -169.07,115.68l-185.97 0 0 -240.25zm830.2 301.64c177.97,0 318.56,-143.25 318.56,-322.99 0,-179.75 -140.59,-323 -318.56,-323 -177.96,0 -317.67,143.25 -317.67,323 0,179.74 139.71,322.99 317.67,322.99zm0 -49.82c-149.49,0 -266.06,-125.46 -266.06,-273.17 0,-147.71 116.57,-273.17 266.06,-273.17 150.38,0 266.05,125.46 266.05,273.17 0,147.71 -115.67,273.17 -266.05,273.17zm581.05 -774.13c23.13,63.17 57.83,107.66 131.7,107.66 73.85,0 108.55,-44.49 131.68,-107.66l-39.15 -19.59c-21.35,49.84 -38.26,81.87 -92.53,81.87 -54.28,0 -71.2,-32.03 -91.66,-81.87l-40.04 19.59zm-68.52 812.39l395.97 -529.44 0.89 0 0 529.44 51.61 0 0 -622.87 -47.16 0 -397.75 532.12 -0.89 0 0 -532.12 -51.61 0 0 622.87 48.94 0zm2025.23 -131.69c-45.39,50.72 -113.01,93.43 -202,93.43 -149.48,0 -266.05,-125.46 -266.05,-273.17 0,-147.71 116.57,-273.17 266.05,-273.17 88.99,0 159.28,45.37 201.1,94.31l37.37 -39.15c-58.73,-64.07 -146.82,-104.99 -238.47,-104.99 -177.95,0 -318.55,143.25 -318.55,323 0,179.74 140.6,322.99 318.55,322.99 88.99,0 179.74,-40.02 236.69,-104.98l-34.69 -38.27zm161.05 131.69l73.85 -165.51 333.67 0 73.87 165.51 58.72 0 -277.62 -622.87 -42.71 0 -277.62 622.87 57.84 0zm240.25 -538.33l0.89 0 143.25 320.34 -287.4 0 143.26 -320.34zm461.81 538.33l0 -290.08 375.49 0 0 290.08 51.61 0 0 -622.87 -51.61 0 0 282.96 -375.49 0 0 -282.96 -51.61 0 0 622.87 51.61 0zm671.82 0l0 -229.57 93.42 -96.1 245.59 325.67 64.06 0 -273.17 -363.04 252.71 -259.83 -71.18 0 -311.43 319.44 0 -319.44 -51.61 0 0 622.87 51.61 0zm573.93 0l395.97 -529.44 0.88 0 0 529.44 51.61 0 0 -622.87 -47.16 0 -397.75 532.12 -0.88 0 0 -532.12 -51.61 0 0 622.87 48.94 0z"/>
   <path class="fil2" d="M1804.01 6804.89l0 -522.32 0.89 0 235.8 390.63 11.56 0 235.8 -390.63 0.9 0 0 522.32 51.61 0 0 -622.87 -52.51 0 -240.25 399.53 -2.66 0 -241.14 -399.53 -51.61 0 0 622.87 51.61 0zm704.72 0l73.85 -165.5 333.68 0 73.87 165.5 58.72 0 -277.62 -622.87 -42.72 0 -277.62 622.87 57.84 0zm240.26 -538.33l0.88 0 143.26 320.34 -287.41 0 143.27 -320.34zm878.24 406.64c-45.38,50.72 -113.01,93.43 -201.99,93.43 -149.49,0 -266.05,-125.46 -266.05,-273.17 0,-147.71 116.56,-273.17 266.05,-273.17 88.98,0 159.28,45.37 201.1,94.31l37.37 -39.15c-58.73,-64.06 -146.81,-104.99 -238.47,-104.99 -177.96,0 -318.55,143.25 -318.55,323 0,179.74 140.59,322.99 318.55,322.99 88.98,0 179.74,-40.02 236.69,-104.98l-34.7 -38.27zm363.05 131.69l0 -573.03 216.22 0 0 -49.84 -484.94 0 0 49.84 217.11 0 0 573.03 51.61 0zm752.77 0l0 -49.83 -370.15 0 0 -240.25 347.91 0 0 -49.83 -347.91 0 0 -233.12 364.82 0 0 -49.84 -416.43 0 0 622.87 421.76 0zm208.23 0l0 -230.46 166.39 0c109.44,0 213.56,-53.39 213.56,-197.54 0,-144.15 -104.12,-194.87 -213.56,-194.87l-218 0 0 622.87 51.61 0zm0 -573.03l159.26 0c137.04,0 168.18,73.85 168.18,145.03 0,72.08 -31.14,147.72 -168.18,147.72l-159.26 0 0 -292.75zm1000.14 441.34c-45.38,50.72 -113.01,93.43 -201.99,93.43 -149.49,0 -266.04,-125.46 -266.04,-273.17 0,-147.71 116.55,-273.17 266.04,-273.17 88.98,0 159.29,45.37 201.11,94.31l37.37 -39.15c-58.74,-64.06 -146.82,-104.99 -238.48,-104.99 -177.95,0 -318.54,143.25 -318.54,323 0,179.74 140.59,322.99 318.54,322.99 88.98,0 179.74,-40.02 236.7,-104.98l-34.71 -38.27zm225.14 131.69l0 -229.57 93.42 -96.1 245.59 325.67 64.07 0 -273.18 -363.04 252.71 -259.83 -71.18 0 -311.43 319.45 0 -319.45 -51.61 0 0 622.87 51.61 0zm499.18 0l73.85 -165.5 333.68 0 73.86 165.5 58.72 0 -277.62 -622.87 -42.71 0 -277.62 622.87 57.84 0zm240.25 -538.33l0.89 0 143.26 320.34 -287.41 0 143.26 -320.34zm815.06 538.33l0 -622.87 -251.82 0c-92.54,0 -191.3,36.49 -191.3,166.41 0,121.9 94.32,166.38 191.3,166.38l20.47 0 -218.89 290.08 64.07 0 220.67 -290.08 113.89 0 0 290.08 51.61 0zm-245.58 -339.91c-118.35,0 -145.04,-56.05 -145.04,-116.55 0,-63.19 26.69,-116.57 145.04,-116.57l193.97 0 0 233.12 -193.97 0z"/>
  </g>
 </g>
</svg>
