<svg width="358" height="151" viewBox="0 0 358 151" fill="none" xmlns="http://www.w3.org/2000/svg">
<path d="M339.533 121.615C327.926 133.223 313.886 139.309 297.412 139.876C297.242 139.369 297.131 138.863 297.08 138.359C298.924 134.25 300.422 130.86 301.57 128.194C302.945 125.001 304.057 122.329 304.904 120.177L305.201 119.385C312.915 117.654 319.675 113.887 325.48 108.082C333.75 99.8112 337.886 89.43 337.886 76.9375C337.886 64.445 333.75 54.0638 325.48 45.7934C322.833 43.1466 319.987 40.9239 316.944 39.1241C316.84 38.655 316.723 38.1867 316.591 37.7192L316.588 37.72C315.525 33.8879 313.848 30.7577 311.556 28.3312C309.195 25.8318 306.239 24.1201 302.688 23.1968L302.355 23.1102L302.084 23.0894C301.375 23.035 300.803 22.8883 300.37 22.651C300.068 22.4854 299.817 22.2613 299.618 21.9813C299.284 21.2828 299.09 20.5579 299.035 19.8084C298.976 19.0072 299.069 18.1632 299.312 17.2784C299.773 16.1362 299.918 15.0821 299.747 14.1168C315.216 15.1569 328.478 21.2049 339.533 32.2601C351.737 44.463 357.838 59.3555 357.838 76.9375C357.838 94.5195 351.737 109.412 339.533 121.615ZM276.781 137.509C266.822 134.688 257.954 129.391 250.179 121.615C237.975 109.412 231.874 94.5195 231.874 76.9375C231.874 59.3555 237.975 44.463 250.179 32.2601C253.909 28.5293 257.892 25.3696 262.125 22.7799C263.943 24.5249 266.112 26.1327 268.63 27.6014C271.588 29.3264 275.04 30.8635 278.985 32.2113C280.476 32.7873 281.704 33.5406 282.667 34.4703C282.794 34.5928 282.917 34.719 283.035 34.849C275.932 36.7135 269.664 40.3619 264.232 45.7934C255.962 54.0638 251.827 64.445 251.827 76.9375C251.827 89.43 255.962 99.8112 264.232 108.082C269.85 113.699 276.361 117.408 283.765 119.21C283.599 121.044 283.341 122.658 282.991 124.049C282.685 125.271 282.317 126.301 281.888 127.139C281.447 127.594 281.006 128.004 280.565 128.367C280.145 128.715 279.748 129.003 279.375 129.232C277.737 129.944 276.698 131.139 276.259 132.815C275.911 134.14 276.056 135.631 276.693 137.282L276.781 137.509Z" fill="#02A5F0"/>
<path d="M116.84 16.2106V137.664H96.8862V51.085L59.93 112.159H57.5005L20.5439 50.9115V137.664H0.591064V16.2106H22.1056L58.7149 76.9374L95.4984 16.2106H116.84Z" fill="#02A5F0"/>
<path d="M202.031 74.6818C214.408 80.5812 220.596 90.3551 220.596 104.004C220.596 114.646 216.576 123.293 208.537 129.943C200.498 136.594 190.001 139.919 177.046 139.919C154.837 139.919 140.147 130.551 132.975 111.812L150.152 101.922C153.738 114.762 162.703 121.181 177.046 121.181C184.68 121.181 190.521 119.533 194.57 116.236C198.618 112.94 200.642 108.515 200.642 102.963C200.642 97.5267 198.705 93.1603 194.83 89.8638C190.955 86.5669 185.49 84.9186 178.434 84.9186H163.686V66.874H174.443C181.268 66.874 186.588 65.3123 190.406 62.1893C194.223 59.0663 196.131 54.9024 196.131 49.6972C196.131 44.492 194.396 40.3569 190.926 37.2917C187.456 34.2261 182.482 32.6935 176.005 32.6935C163.975 32.6935 155.878 38.1878 151.714 49.1768L134.711 39.2865C142.576 22.3988 156.341 13.9546 176.005 13.9546C187.919 13.9546 197.577 17.1649 204.98 23.5844C212.383 30.0044 216.085 38.3613 216.085 48.6559C216.085 60.1072 211.4 68.7823 202.031 74.6818Z" fill="#02A5F0"/>
<path fill-rule="evenodd" clip-rule="evenodd" d="M314.19 66.9606C312.894 61.4489 312.342 56.6387 312.535 52.5289C314.321 47.8362 314.574 43.2078 313.291 38.6444C311.471 32.0684 307.65 28.0239 301.829 26.5102C299.42 26.3254 297.683 25.3711 296.62 23.648C295.461 21.3481 295.278 18.8502 296.07 16.1536C296.616 14.9078 296.461 14.1844 295.605 13.983C295.271 13.9074 295.026 13.7951 294.743 13.6882C294.227 13.4931 294.101 13.794 294.094 13.6303C294.076 13.2494 293.88 13.1685 293.733 13.1651C293.378 13.1571 293.473 12.9489 293.496 12.7312C293.624 11.5497 293.653 11.3195 293.072 11.3245C291.884 11.4189 291.003 11.2768 290.324 11.129C288.243 9.84099 286.346 9.52275 284.633 10.1751C281.5 11.7614 279.61 14.1406 278.964 17.3124C284.807 17.8959 288.457 20.3386 289.916 24.6405C286.714 20.4834 282.862 18.3846 278.362 18.3457C276.114 18.4167 274.186 17.8895 272.579 16.7636C270.157 15.6448 268.025 14.7468 266.182 14.071C264.238 13.3582 264.84 13.5389 263.363 12.3064C262.004 11.174 260.149 10.279 257.797 9.62253C253.535 8.28042 250.459 7.25352 248.568 6.54108C247.509 5.70013 246.942 4.70877 246.868 3.56433C246.128 2.25586 245.233 1.54492 244.183 1.43192C243.18 1.03166 242.255 0.598532 241.408 0.133272C240.388 -0.0489014 240.255 0.296169 241.012 1.16773C241.563 1.72785 242.143 2.23771 242.752 2.69768C243.07 3.38064 242.843 3.79828 242.073 3.94946C239.179 4.80212 236.327 4.6619 233.519 3.52993C232.908 3.29069 232.835 4.53793 233.357 4.82442C232.909 4.86297 232.932 5.58826 233.263 5.87551C232.973 6.22247 233.191 6.84647 233.603 6.97951C233.236 7.24748 233.667 7.99129 234.411 8.18367C237.517 9.3179 241.39 9.89692 246.03 9.92073C247.979 10.3308 250.365 11.623 253.187 13.7955C255.681 15.4203 257.834 16.5825 259.646 17.2817C261.827 18.1234 261.768 17.4068 263.495 19.2834C267.092 23.1899 272.631 26.421 280.113 28.9748C284.053 30.4712 286.685 33.011 288.009 36.5955C289.367 40.081 291.422 43.105 294.175 45.6702C304.38 58.5164 291.224 61.6319 298.102 75.2461C299.515 78.4122 300.115 83.8906 299.903 91.6791C298.667 96.0531 296.529 100.046 293.492 103.659C289.624 109.252 287.535 114.379 287.223 119.04C286.865 123.45 286.016 126.828 284.679 129.175C283.382 130.57 282.109 131.622 280.86 132.332C279.467 132.882 279.143 134.121 279.886 136.048C281.134 137.643 282.396 139.132 283.672 140.515C284.567 141.769 285.328 143.322 285.957 145.175C287.553 147.751 289.881 149.372 292.94 150.038C294.594 150.047 295.592 149.823 295.932 149.365C294.176 147.404 293.298 146.423 293.298 146.423C290.833 143.522 289.501 139.72 289.303 135.019C289.201 132.795 292.108 126.297 298.025 115.526C299.258 112.945 300.476 110.072 301.678 106.908C302.234 105.445 302.11 105.683 303.189 104.594C306.9 100.847 305.345 99.0295 307.147 95.1623C311.337 86.1689 316.77 77.2466 314.19 66.9606ZM311.947 92.9566C314.194 85.9206 315.242 80.6633 315.094 77.1842C313.636 83.0081 311.546 88.4926 308.825 93.6373C306.762 97.7982 308.94 100.127 305.079 104.319C303.788 105.72 303.415 106.381 302.54 108.202C302.079 109.164 301.61 110.28 301.137 111.549C297.056 120.095 293.08 127.232 290.914 132.676C289.935 135.353 290.194 136.6 291.583 141.208C292.85 144.23 294.661 146.782 297.012 148.865C300.616 148.37 298.304 147.229 297.118 145.872C294.781 143.199 293.613 140.482 293.614 137.722C297.318 129.48 300.018 123.212 301.713 118.917C302.537 116.89 306.391 105.649 308.522 104.296C311.866 99.121 310.442 97.6719 311.947 92.9566ZM268.807 1.79589C272.887 4.68193 277.007 8.2362 280.666 11.5565C279.147 13.4417 278.2 15.2389 277.824 16.9484C274.605 12.4651 271.903 8.65573 269.718 5.52099C269.123 4.76432 268.655 4.54322 266.906 4.71141C265.205 4.7923 262.302 3.36439 261.189 1.72143C260.731 1.01352 261.253 0.683568 261.884 0.96212C263.744 1.81327 265.034 2.52004 265.704 2.13037C266.084 1.68325 264.728 1.14203 264.072 0.999915C263.588 0.778435 263.844 0.172202 264.913 0.346816C266.63 0.547509 267.404 0.80376 268.807 1.79589Z" fill="#02A5F0"/>
<path fill-rule="evenodd" clip-rule="evenodd" d="M289.136 71.6348C292.064 71.6348 294.439 74.0094 294.439 76.9374C294.439 79.8658 292.064 82.2401 289.136 82.2401C286.208 82.2401 283.834 79.8658 283.834 76.9374C283.834 74.0094 286.208 71.6348 289.136 71.6348Z" fill="#02A5F0"/>
<path fill-rule="evenodd" clip-rule="evenodd" d="M287.015 60.8582C288.968 60.8582 290.55 62.441 290.55 64.3935C290.55 66.3457 288.968 67.9281 287.015 67.9281C285.063 67.9281 283.48 66.3457 283.48 64.3935C283.48 62.441 285.063 60.8582 287.015 60.8582Z" fill="#02A5F0"/>
<path fill-rule="evenodd" clip-rule="evenodd" d="M287.015 85.9467C288.968 85.9467 290.55 87.5291 290.55 89.4813C290.55 91.4338 288.968 93.0163 287.015 93.0163C285.063 93.0163 283.48 91.4338 283.48 89.4813C283.48 87.5291 285.063 85.9467 287.015 85.9467Z" fill="#02A5F0"/>
<path fill-rule="evenodd" clip-rule="evenodd" d="M279.945 44.6073C280.921 44.6073 281.713 45.3987 281.713 46.3746C281.713 47.3509 280.921 48.1423 279.945 48.1423C278.969 48.1423 278.177 47.3509 278.177 46.3746C278.177 45.3987 278.969 44.6073 279.945 44.6073Z" fill="#02A5F0"/>
<path fill-rule="evenodd" clip-rule="evenodd" d="M284.187 96.7229C285.651 96.7229 286.838 97.91 286.838 99.3742C286.838 100.838 285.651 102.026 284.187 102.026C282.723 102.026 281.536 100.838 281.536 99.3742C281.536 97.91 282.723 96.7229 284.187 96.7229Z" fill="#02A5F0"/>
<path fill-rule="evenodd" clip-rule="evenodd" d="M279.945 105.732C280.921 105.732 281.713 106.523 281.713 107.499C281.713 108.476 280.921 109.267 279.945 109.267C278.969 109.267 278.177 108.476 278.177 107.499C278.177 106.523 278.969 105.732 279.945 105.732Z" fill="#02A5F0" stroke="#399DD7" stroke-width="0.288" stroke-miterlimit="22.9256"/>
<path fill-rule="evenodd" clip-rule="evenodd" d="M284.187 51.8492C285.651 51.8492 286.838 53.0364 286.838 54.5006C286.838 55.9648 285.651 57.1519 284.187 57.1519C282.723 57.1519 281.536 55.9648 281.536 54.5006C281.536 53.0364 282.723 51.8492 284.187 51.8492Z" fill="#02A5F0"/>
</svg>
