<svg width="32" height="32" viewBox="0 0 32 32" fill="none" xmlns="http://www.w3.org/2000/svg">
<g clip-path="url(#clip0_2081_28)">
<path d="M26.4017 4.47284C23.4512 2.11201 19.7788 0.83707 16.0001 0.861678C7.34142 0.861678 0.32251 7.28387 0.32251 15.206C0.32251 15.2446 0.32251 15.2841 0.323475 15.3227C0.32251 15.341 0.32251 15.3584 0.32251 15.3767C0.323544 16.6476 0.522922 17.9105 0.913445 19.1199C0.921157 19.1459 0.929837 19.1729 0.93851 19.1999C1.57545 21.1878 2.64962 23.0077 4.08212 24.526C4.32472 25.5966 4.29315 26.711 3.99032 27.7661C3.6875 28.8212 3.12323 29.7827 2.34981 30.5617C2.30258 30.6088 2.27039 30.6689 2.25732 30.7344C2.24424 30.7998 2.25086 30.8677 2.27634 30.9294C2.30183 30.9911 2.34503 31.0439 2.40048 31.081C2.45594 31.1182 2.52117 31.138 2.58792 31.1381C5.17261 31.1281 7.65453 30.1248 9.52007 28.3358L9.56634 28.2914C11.6078 29.1285 13.7937 29.5566 16.0001 29.5514C20.7758 29.5514 25.0521 27.5974 27.9277 24.5154C30.3197 22.0044 31.6612 18.674 31.6777 15.206C31.6777 10.9355 29.6378 7.10071 26.4017 4.47284Z" fill="#1E2843"/>
</g>
<defs>
<clipPath id="clip0_2081_28">
<rect width="32" height="32" fill="white"/>
</clipPath>
</defs>
</svg>
