<svg width="26" height="23" viewBox="0 0 26 23" fill="none" xmlns="http://www.w3.org/2000/svg">
<g clip-path="url(#clip0_93_127)">
<path fill-rule="evenodd" clip-rule="evenodd" d="M3.28571 7.66667V5.47619H1.09524C0.492857 5.47619 0 4.98333 0 4.38095C0 3.77857 0.492857 3.28571 1.09524 3.28571H3.28571V1.09524C3.28571 0.492857 3.77857 0 4.38095 0C4.98333 0 5.47619 0.492857 5.47619 1.09524V3.28571H7.66667C8.26905 3.28571 8.7619 3.77857 8.7619 4.38095C8.7619 4.98333 8.26905 5.47619 7.66667 5.47619H5.47619V7.66667C5.47619 8.26905 4.98333 8.7619 4.38095 8.7619C3.77857 8.7619 3.28571 8.26905 3.28571 7.66667ZM14.2381 17.5238C12.4234 17.5238 10.9524 16.0527 10.9524 14.2381C10.9524 12.4234 12.4234 10.9524 14.2381 10.9524C16.0527 10.9524 17.5238 12.4234 17.5238 14.2381C17.5238 16.0527 16.0527 17.5238 14.2381 17.5238ZM23 5.47619C24.2048 5.47619 25.1905 6.4619 25.1905 7.66667V20.8095C25.1905 22.0143 24.2048 23 23 23H5.47619C4.27143 23 3.28571 22.0143 3.28571 20.8095V9.55048C3.61429 9.73667 3.97571 9.85714 4.38095 9.85714C5.58571 9.85714 6.57143 8.87143 6.57143 7.66667V6.57143H7.66667C8.87143 6.57143 9.85714 5.58571 9.85714 4.38095C9.85714 3.97571 9.73667 3.61429 9.55048 3.28571H16.56C17.1733 3.28571 17.7648 3.54857 18.17 3.99762L19.5281 5.47619H23ZM14.2381 19.7143C17.261 19.7143 19.7143 17.261 19.7143 14.2381C19.7143 11.2152 17.261 8.7619 14.2381 8.7619C11.2152 8.7619 8.7619 11.2152 8.7619 14.2381C8.7619 17.261 11.2152 19.7143 14.2381 19.7143Z" fill="#1E2843"/>
</g>
<defs>
<clipPath id="clip0_93_127">
<rect width="25.1905" height="23" fill="white"/>
</clipPath>
</defs>
</svg>
