<svg width="32" height="32" viewBox="0 0 32 32" fill="none" xmlns="http://www.w3.org/2000/svg">
<path fill-rule="evenodd" clip-rule="evenodd" d="M5 11V25.9991C5 27.0984 5.89277 28 6.99406 28H21V21.9981C21 20.8867 21.8981 20 23.0059 20H28V11H5ZM5 10V7.00086C5 5.89582 5.90163 5 7.00086 5H25.9991C27.1042 5 28 5.8934 28 6.99188V10H5ZM22 28V22.0029C22 21.449 22.451 21 22.9908 21H28L22 28ZM13 18V19H20V18H13ZM8 17V20H11V17H8ZM9 18V19H10V18H9ZM13 14V15H25V14H13ZM8 13V16H11V13H8ZM9 14V15H10V14H9ZM13 22V23H19V22H13ZM8 21V24H11V21H8ZM9 22V23H10V22H9Z" fill="#1E2843"/>
</svg>
