<svg width="24" height="24" viewBox="0 0 24 24" fill="none" xmlns="http://www.w3.org/2000/svg">
<path d="M20.2501 20.9981C20.1516 20.9983 20.054 20.979 19.963 20.9412C19.872 20.9035 19.7894 20.8481 19.7199 20.7783L3.21994 4.2783C3.08522 4.1365 3.01123 3.94769 3.01373 3.75212C3.01624 3.55655 3.09504 3.36969 3.23334 3.23139C3.37164 3.09309 3.5585 3.01428 3.75407 3.01178C3.94964 3.00928 4.13845 3.08327 4.28025 3.21798L20.7803 19.718C20.8851 19.8229 20.9564 19.9565 20.9854 20.1019C21.0143 20.2474 20.9994 20.3981 20.9427 20.5351C20.8859 20.6721 20.7899 20.7892 20.6666 20.8716C20.5433 20.954 20.3984 20.9981 20.2501 20.9981Z" fill="#B1B6C1"/>
<path d="M11.625 14.8064L9.19736 12.3787C9.18345 12.365 9.16557 12.3559 9.14623 12.3528C9.12688 12.3496 9.10705 12.3527 9.08952 12.3614C9.07199 12.3702 9.05763 12.3842 9.04847 12.4015C9.03931 12.4188 9.03581 12.4386 9.03846 12.458C9.13646 13.0878 9.43219 13.6701 9.88291 14.1209C10.3336 14.5716 10.916 14.8673 11.5458 14.9653C11.5652 14.968 11.585 14.9645 11.6023 14.9553C11.6196 14.9461 11.6336 14.9318 11.6424 14.9142C11.6511 14.8967 11.6541 14.8769 11.651 14.8575C11.6479 14.8382 11.6388 14.8203 11.625 14.8064Z" fill="#B1B6C1"/>
<path d="M12.375 9.19516L14.8064 11.6256C14.8202 11.6396 14.8382 11.6489 14.8576 11.6521C14.8771 11.6553 14.897 11.6523 14.9147 11.6436C14.9323 11.6348 14.9467 11.6207 14.9559 11.6032C14.9651 11.5858 14.9685 11.5659 14.9657 11.5464C14.868 10.9157 14.572 10.3325 14.1208 9.88124C13.6695 9.42996 13.0863 9.13401 12.4556 9.03625C12.436 9.03324 12.4161 9.03647 12.3985 9.0455C12.3809 9.05452 12.3666 9.06887 12.3577 9.08649C12.3487 9.10411 12.3456 9.12411 12.3487 9.14362C12.3518 9.16314 12.361 9.18118 12.375 9.19516Z" fill="#B1B6C1"/>
<path d="M23.0155 12.8137C23.1707 12.5702 23.2527 12.2872 23.2519 11.9984C23.2511 11.7096 23.1674 11.427 23.0108 11.1844C21.7705 9.26624 20.1613 7.63687 18.3575 6.47203C16.3593 5.18203 14.1561 4.5 11.9849 4.5C10.8402 4.50157 9.70338 4.6882 8.61831 5.05266C8.58795 5.06276 8.56067 5.08046 8.53908 5.10409C8.51749 5.12771 8.50231 5.15647 8.49497 5.18763C8.48764 5.21878 8.48841 5.25129 8.4972 5.28207C8.50599 5.31284 8.52251 5.34085 8.54519 5.36344L10.7596 7.57781C10.7826 7.60086 10.8112 7.61751 10.8426 7.62614C10.874 7.63477 10.9071 7.63508 10.9386 7.62703C11.6892 7.44411 12.4743 7.45752 13.2182 7.66595C13.9621 7.87438 14.6398 8.27082 15.1861 8.81709C15.7323 9.36337 16.1288 10.0411 16.3372 10.785C16.5456 11.5289 16.559 12.3139 16.3761 13.0645C16.3682 13.096 16.3685 13.129 16.3771 13.1603C16.3858 13.1916 16.4024 13.2202 16.4253 13.2431L19.6105 16.4306C19.6436 16.4638 19.688 16.4834 19.7349 16.4855C19.7817 16.4875 19.8277 16.472 19.8636 16.4419C21.0897 15.3968 22.1521 14.1739 23.0155 12.8137Z" fill="#B1B6C1"/>
<path d="M12 16.4992C11.3188 16.4993 10.6465 16.3446 10.0337 16.047C9.42094 15.7494 8.88375 15.3165 8.46263 14.7811C8.04151 14.2456 7.74745 13.6216 7.60262 12.9559C7.45779 12.2903 7.46598 11.6004 7.62656 10.9384C7.63452 10.9069 7.63417 10.8739 7.62555 10.8426C7.61692 10.8113 7.60031 10.7828 7.57734 10.7598L4.44422 7.62531C4.41099 7.59205 4.36649 7.57248 4.31952 7.57048C4.27255 7.56849 4.22655 7.5842 4.19062 7.61453C3.04734 8.58999 1.9875 9.77687 1.01859 11.1639C0.84899 11.4073 0.755584 11.6957 0.750243 11.9923C0.744901 12.2889 0.827865 12.5805 0.988591 12.8298C2.22656 14.7672 3.81937 16.3989 5.59547 17.5478C7.59656 18.843 9.74625 19.4992 11.985 19.4992C13.1412 19.4961 14.2899 19.3135 15.39 18.9578C15.4206 18.948 15.4482 18.9305 15.4702 18.907C15.4921 18.8834 15.5076 18.8546 15.5152 18.8234C15.5227 18.7921 15.5222 18.7594 15.5134 18.7285C15.5047 18.6975 15.4882 18.6693 15.4655 18.6466L13.2403 16.4219C13.2174 16.3989 13.1888 16.3823 13.1575 16.3737C13.1262 16.365 13.0932 16.3647 13.0617 16.3727C12.7141 16.4569 12.3577 16.4994 12 16.4992Z" fill="#B1B6C1"/>
</svg>
