<svg width="24" height="24" viewBox="0 0 24 24" fill="none" xmlns="http://www.w3.org/2000/svg">
<path d="M11.625 14.8064L9.19736 12.3787C9.18345 12.365 9.16557 12.3559 9.14623 12.3528C9.12688 12.3496 9.10705 12.3527 9.08952 12.3614C9.07199 12.3702 9.05763 12.3842 9.04847 12.4015C9.03931 12.4188 9.03581 12.4386 9.03846 12.458C9.13646 13.0878 9.43219 13.6701 9.88291 14.1209C10.3336 14.5716 10.916 14.8673 11.5458 14.9653C11.5652 14.968 11.585 14.9645 11.6023 14.9553C11.6196 14.9461 11.6336 14.9318 11.6424 14.9142C11.6511 14.8967 11.6541 14.8769 11.651 14.8575C11.6479 14.8382 11.6388 14.8203 11.625 14.8064Z" fill="#B1B6C1"/>
<path d="M12.375 9.19516L14.8064 11.6256C14.8202 11.6396 14.8382 11.6489 14.8576 11.6521C14.8771 11.6553 14.897 11.6523 14.9147 11.6436C14.9323 11.6348 14.9467 11.6207 14.9559 11.6032C14.9651 11.5858 14.9685 11.5659 14.9657 11.5464C14.868 10.9157 14.572 10.3325 14.1208 9.88124C13.6695 9.42996 13.0863 9.13401 12.4556 9.03625C12.436 9.03324 12.4161 9.03647 12.3985 9.0455C12.3809 9.05452 12.3666 9.06887 12.3577 9.08649C12.3487 9.10411 12.3456 9.12411 12.3487 9.14362C12.3518 9.16314 12.361 9.18118 12.375 9.19516V9.19516Z" fill="#B1B6C1"/>
<path d="M12.375 9.19516L14.8064 11.6256C14.8202 11.6396 14.8382 11.6489 14.8576 11.6521C14.8771 11.6553 14.897 11.6523 14.9147 11.6436C14.9323 11.6348 14.9467 11.6207 14.9559 11.6032C14.9651 11.5858 14.9685 11.5659 14.9657 11.5464C14.868 10.9157 14.572 10.3325 14.1208 9.88124C13.6695 9.42996 13.0863 9.13401 12.4556 9.03625C12.436 9.03324 12.4161 9.03647 12.3985 9.0455C12.3809 9.05452 12.3666 9.06887 12.3577 9.08649C12.3487 9.10411 12.3456 9.12411 12.3487 9.14362C12.3518 9.16314 12.361 9.18118 12.375 9.19516V9.19516Z" fill="#B1B6C1"/>
<path d="M23.0155 12.8137C23.1707 12.5702 23.2527 12.2872 23.2519 11.9984C23.2511 11.7096 23.1674 11.427 23.0108 11.1844C21.7705 9.26624 20.1613 7.63687 18.3575 6.47203C16.3593 5.18203 14.1561 4.5 11.9849 4.5C10.8402 4.50157 9.70338 4.6882 8.61831 5.05266C8.58795 5.06276 8.56067 5.08046 8.53908 5.10409C8.51749 5.12771 8.50231 5.15647 8.49497 5.18763C8.48764 5.21878 8.48841 5.25129 8.4972 5.28207C8.50599 5.31284 8.52251 5.34085 8.54519 5.36344L10.7596 7.57781C10.7826 7.60086 10.8112 7.61751 10.8426 7.62614C10.874 7.63477 10.9071 7.63508 10.9386 7.62703C11.6892 7.44411 12.4743 7.45752 13.2182 7.66595C13.9621 7.87438 14.6398 8.27082 15.1861 8.81709C15.7323 9.36337 16.2916 10.2561 16.5 11C16.6983 11.9429 16.6749 12.3973 16.5 13C16.492 13.0315 15.5 16.5 12 16.5C11.9366 16.4419 13.977 17.477 14 17.5C14.8242 18.3238 14.9531 18.9979 15 19C16.5 19 19.8277 16.472 19.8636 16.4419C21.0897 15.3968 22.1521 14.1739 23.0155 12.8137Z" fill="#B1B6C1"/>
<path d="M12 16.5003C11.3188 16.5003 10.6465 16.3457 10.0337 16.0481C9.42094 15.7505 8.88375 15.3176 8.46263 14.7822C8.04151 14.2467 7.5 13 7.5 11.9934C7.5 9 10 7.5 12 7.5L9 5C7.62555 5.07325 5.04697 7.00304 5 7.00104C4.95303 6.99904 4.22655 7.58529 4.19062 7.61561C3.04734 8.59108 1.9875 9.77795 1.01859 11.165C0.84899 11.4084 0.755584 11.6968 0.750243 11.9934C0.744901 12.29 0.827865 12.5815 0.988591 12.8309C2.22656 14.7683 3.81937 16.4 5.59547 17.5489C7.59656 18.844 9.74625 19.5003 11.985 19.5003C13.1412 19.4972 14.2899 19.3145 15.39 18.9589C15.4206 18.9491 15.4482 18.9316 15.4702 18.9081C15.4921 18.8845 15.5076 18.8557 15.5152 18.8245C15.5227 18.7932 15.5222 18.7605 15.5134 18.7295C15.5047 18.6986 15.4882 18.6704 15.4655 18.6476L13.2403 16.423C13.2174 16.4 13.1888 16.3834 13.1575 16.3747C13.1262 16.3661 13.0932 16.3658 13.0617 16.3737C12.7141 16.458 12.3577 16.5005 12 16.5003Z" fill="#B1B6C1"/>
<circle cx="12" cy="12" r="3" fill="#B1B6C1"/>
</svg>
