<svg width="24" height="24" viewBox="0 0 24 24" fill="none" xmlns="http://www.w3.org/2000/svg">
<path d="M11.9999 9.23071C9.96916 9.23071 8.30762 10.8923 8.30762 12.923C8.30762 14.9538 9.96916 16.6153 11.9999 16.6153C14.0307 16.6153 15.6922 14.9538 15.6922 12.923C15.6922 10.8923 14.0307 9.23071 11.9999 9.23071Z" fill="#1E2843"/>
<path d="M21.2308 6.46159H18.8308C18.1846 6.46159 17.6308 6.13852 17.2616 5.63083L16.2 4.01544C15.8769 3.23083 15.0923 2.76929 14.2616 2.76929H9.73848C8.90771 2.76929 8.1231 3.23083 7.75386 4.01544L6.69233 5.63083C6.36925 6.13852 5.76925 6.46159 5.1231 6.46159H2.76925C1.75386 6.46159 0.923096 7.29236 0.923096 8.30775V19.3847C0.923096 20.4001 1.75386 21.2308 2.76925 21.2308H21.2308C22.2462 21.2308 23.0769 20.4001 23.0769 19.3847V8.30775C23.0769 7.29236 22.2462 6.46159 21.2308 6.46159ZM12 18.4616C8.95387 18.4616 6.46156 15.9693 6.46156 12.9231C6.46156 9.87698 8.95387 7.38467 12 7.38467C15.0462 7.38467 17.5385 9.87698 17.5385 12.9231C17.5385 15.9693 15.0462 18.4616 12 18.4616Z" fill="#1E2843"/>
</svg>
