<svg width="40" height="40" viewBox="0 0 40 40" fill="none" xmlns="http://www.w3.org/2000/svg">
<path d="M20 40C8.9543 40 -1.47014e-06 31.0457 -9.4708e-07 20C-4.24022e-07 8.9543 8.95431 -1.25266e-06 20 -8.06979e-07C31.0457 -3.61297e-07 40 8.95431 40 20C40 31.0457 31.0457 40 20 40ZM20 2C10.0589 2 2 10.0589 2 20C2 29.9411 10.0589 38 20 38C29.9411 38 38 29.9411 38 20C38 10.0589 29.9411 2 20 2Z" fill="#4CD964"/>
<path d="M14 19.6429L17.9464 23.2857L25.8393 16" stroke="#4CD964" stroke-width="2"/>
</svg>
