<svg width="24" height="24" viewBox="0 0 24 24" fill="none" xmlns="http://www.w3.org/2000/svg">
<g clip-path="url(#clip0_2079_22)">
<path d="M22.9857 8.96463H21.1139C20.962 8.55793 20.8101 8.15123 20.6092 7.79844L21.9273 6.48035C22.334 6.07855 22.334 5.47095 21.9273 5.06426L18.9873 2.12428C18.5855 1.71759 17.978 1.71759 17.5713 2.12428L16.2042 3.49137C15.8514 3.33947 15.4447 3.18757 15.0919 3.03567V1.10999C15.0919 0.551399 14.6362 0.0957031 14.0776 0.0957031H9.92242C9.36382 0.0957031 8.90813 0.551399 8.90813 1.10999V2.92788C8.50633 3.07977 8.14863 3.23167 7.79584 3.38357L6.42875 2.01648C6.02695 1.60979 5.41936 1.60979 5.01266 2.01648L2.07268 4.95646C1.66599 5.35826 1.66599 5.96585 2.07268 6.37255L3.39077 7.69064C3.18987 8.09733 3.03797 8.45013 2.88608 8.85683H1.01429C0.455696 8.85683 0 9.31252 0 9.87112V14.0262C0 14.5848 0.455696 15.0405 1.01429 15.0405H2.73418C2.88608 15.4472 3.03797 15.849 3.23887 16.2557L1.97468 17.5199C1.77379 17.7208 1.40629 18.3186 1.97468 18.936L4.91466 21.876C5.31646 22.2827 5.92405 22.2827 6.33075 21.876L7.54594 20.6608C7.94773 20.9156 8.35443 21.0675 8.81013 21.2194V22.8903C8.81013 23.4489 9.26582 23.9046 9.82442 23.9046H13.9796C14.5382 23.9046 14.9939 23.4489 14.9449 22.9981V21.3272C15.3467 21.1753 15.8024 20.9695 16.2091 20.7686L17.4243 21.9838C17.8261 22.3905 18.4336 22.3905 18.8403 21.9838L21.7803 19.0438C22.187 18.642 22.187 18.0344 21.7803 17.6277L20.5161 16.3635C20.717 15.9568 20.8689 15.555 21.0208 15.1483H22.9857C23.5443 15.1483 24 14.6926 24 14.134V9.97892C24 9.42032 23.5443 8.96463 22.9857 8.96463ZM21.8342 13.0708H20.3152C19.8595 13.0708 19.4577 13.3745 19.3548 13.8302C19.149 14.5897 18.8991 15.3002 18.4924 15.9568C18.2376 16.3635 18.3405 16.8682 18.6443 17.172L19.7076 18.2353L18.1886 19.7543L17.1744 18.74C16.8706 18.3872 16.3659 18.3333 15.9592 18.5881C15.2487 18.9948 14.5382 19.2986 13.7787 19.4995C13.323 19.5975 13.0192 20.0042 13.0192 20.4599V21.9299H10.8387V21.925H10.7897V20.455C10.7897 19.9993 10.4859 19.5975 10.0302 19.4946C9.26582 19.2937 8.50633 18.9899 7.84973 18.5832C7.44304 18.3284 6.93834 18.4313 6.63454 18.7351L5.62025 19.7494L4.10127 18.2304L5.16456 17.1671C5.46835 16.8143 5.57125 16.3586 5.31646 15.9519C4.90976 15.2953 4.60596 14.5848 4.45406 13.8253C4.35606 13.3696 3.94937 13.0659 3.49367 13.0659H1.97468V10.8854H3.59657C4.05227 10.8854 4.45406 10.5816 4.55696 10.1259C4.70886 9.41542 5.01266 8.75393 5.41935 8.09733C5.67415 7.69064 5.57125 7.18594 5.26746 6.88214L4.10127 5.71595L5.62025 4.19697L6.78644 5.36316C7.13924 5.66695 7.59494 5.76985 8.00163 5.51505C8.66313 5.16226 9.31972 4.85846 10.0302 4.70656C10.4859 4.60856 10.7897 4.20187 10.7897 3.74617V2.07528H12.9702V3.80007C12.9702 4.25577 13.274 4.65756 13.7297 4.76046C14.4402 4.91236 15.1507 5.21616 15.7583 5.56895C16.165 5.82375 16.6697 5.72085 16.9735 5.41706L18.1886 4.20187L19.7076 5.72085L18.5414 6.88704C18.1886 7.19084 18.1347 7.69554 18.3895 8.10223C18.7472 8.71473 19.051 9.42032 19.2519 10.1308C19.3499 10.5865 19.7566 10.8903 20.2123 10.8903H21.8342V13.0708Z" fill="#1E2843"/>
<path d="M11.9019 6.48047C8.86392 6.48047 6.37964 8.96475 6.37964 12.0027C6.37964 15.0407 8.86392 17.5249 11.9019 17.5249C14.9448 17.5249 17.4242 15.0407 17.4242 12.0027C17.4242 8.96475 14.9399 6.48047 11.9019 6.48047ZM11.9019 15.5502C9.97621 15.5502 8.35432 13.9774 8.35432 12.0027C8.35432 10.077 9.92721 8.45516 11.9019 8.45516C13.8766 8.45516 15.4495 10.028 15.4495 12.0027C15.4495 13.9284 13.8276 15.5502 11.9019 15.5502Z" fill="#1E2843"/>
</g>
<defs>
<clipPath id="clip0_2079_22">
<rect width="24" height="24" fill="white"/>
</clipPath>
</defs>
</svg>
