<svg width="24" height="24" viewBox="0 0 24 24" fill="none" xmlns="http://www.w3.org/2000/svg">
<path d="M1.00312 20.2734H4.57031C4.84219 20.2734 5.05781 20.0531 5.05781 19.7859V5.43745C5.05781 5.16558 4.8375 4.94995 4.57031 4.94995H1.00312C0.73125 4.94995 0.515625 5.17026 0.515625 5.43745V19.7859C0.515625 20.0578 0.735938 20.2734 1.00312 20.2734Z" fill="#1E2843"/>
<path d="M7.14846 20.2735H10.7156C10.9875 20.2735 11.2031 20.0532 11.2031 19.786V9.81099C11.2031 9.53911 10.9828 9.32349 10.7156 9.32349H7.14846C6.87659 9.32349 6.66096 9.5438 6.66096 9.81099V19.786C6.65627 20.0579 6.87659 20.2735 7.14846 20.2735Z" fill="#1E2843"/>
<path d="M13.289 20.2735H16.8562C17.1281 20.2735 17.3437 20.0532 17.3437 19.786V2.17036C17.3437 1.89849 17.1234 1.68286 16.8562 1.68286H13.289C13.0171 1.68286 12.8015 1.90317 12.8015 2.17036V19.786C12.8015 20.0579 13.0171 20.2735 13.289 20.2735Z" fill="#1E2843"/>
<path d="M22.9968 7.15796H19.4296C19.1578 7.15796 18.9421 7.37827 18.9421 7.64546V19.7861C18.9421 20.058 19.1625 20.2736 19.4296 20.2736H22.9968C23.2687 20.2736 23.4843 20.0533 23.4843 19.7861V7.64546C23.4843 7.37827 23.264 7.15796 22.9968 7.15796Z" fill="#1E2843"/>
<path d="M22.9969 21.3423H1.00312C0.73125 21.3423 0.515625 21.5626 0.515625 21.8298C0.515625 22.097 0.735937 22.3173 1.00312 22.3173H22.9922C23.2641 22.3173 23.4797 22.097 23.4797 21.8298C23.4797 21.5626 23.2641 21.3423 22.9969 21.3423Z" fill="#1E2843"/>
</svg>
